<?xml version="1.0" standalone="no"?>
<!DOCTYPE svg PUBLIC "-//W3C//DTD SVG 20010904//EN"
 "http://www.w3.org/TR/2001/REC-SVG-20010904/DTD/svg10.dtd">
<svg version="1.0" xmlns="http://www.w3.org/2000/svg"
 width="94.000000pt" height="50.000000pt" viewBox="0 0 94.000000 50.000000"
 preserveAspectRatio="xMidYMid meet">

<g transform="translate(0.000000,50.000000) scale(0.100000,-0.100000)"
fill="#001529" stroke="none">
<path d="M0 250 l0 -250 470 0 470 0 0 250 0 250 -470 0 -470 0 0 -250z m191
175 c0 -5 -10 -12 -23 -15 -20 -5 -23 -13 -26 -60 -2 -30 -7 -59 -12 -65 -5
-6 -5 -17 0 -25 6 -8 10 -36 10 -62 0 -43 3 -48 25 -54 29 -7 28 -28 -1 -32
-35 -4 -47 14 -52 78 -3 40 -9 63 -18 67 -18 7 -18 27 1 43 10 8 15 31 15 66
0 40 4 56 18 63 21 13 63 10 63 -4z m649 -11 c6 -14 10 -42 10 -63 0 -22 6
-44 15 -51 8 -7 15 -18 15 -25 0 -7 -7 -15 -15 -19 -11 -4 -15 -21 -15 -58 0
-64 -7 -76 -48 -84 -25 -5 -32 -3 -32 9 0 9 10 17 23 19 19 3 22 10 25 53 1
28 5 57 9 65 3 8 5 20 3 25 -2 6 -6 35 -9 65 -5 47 -9 55 -28 58 -35 5 -29 32
7 32 24 0 33 -6 40 -26z m-555 -139 c0 -30 -39 -27 -43 3 -3 20 0 23 20 20 15
-2 23 -10 23 -23z m110 0 c0 -30 -39 -27 -43 3 -3 20 0 23 20 20 15 -2 23 -10
23 -23z m109 9 c8 -21 -1 -34 -24 -34 -19 0 -34 25 -24 41 9 15 41 10 48 -7z
m109 2 c6 -15 -11 -36 -29 -36 -14 0 -27 28 -18 41 8 14 41 11 47 -5z m105 -8
c-4 -27 -33 -36 -42 -13 -8 22 1 35 25 35 15 0 20 -6 17 -22z"/>
</g>
</svg>
