<?xml version="1.0" standalone="no"?>
<!DOCTYPE svg PUBLIC "-//W3C//DTD SVG 20010904//EN"
 "http://www.w3.org/TR/2001/REC-SVG-20010904/DTD/svg10.dtd">
<svg version="1.0" xmlns="http://www.w3.org/2000/svg"
 width="784.000000pt" height="166.000000pt" viewBox="0 0 784.000000 166.000000"
 preserveAspectRatio="xMidYMid meet">

<g transform="translate(0.000000,166.000000) scale(0.100000,-0.100000)"
fill="#001529" stroke="none">
<path d="M0 830 l0 -830 3920 0 3920 0 0 830 0 830 -3920 0 -3920 0 0 -830z
m868 381 c5 -31 -12 -41 -69 -41 -25 0 -50 -5 -57 -12 -8 -8 -12 -51 -12 -129
0 -127 -6 -155 -41 -188 l-23 -21 23 -21 c35 -33 41 -61 41 -188 0 -84 4 -122
13 -129 7 -6 37 -12 67 -14 54 -3 55 -4 55 -33 0 -29 -1 -30 -54 -33 -71 -4
-97 3 -127 35 -23 25 -24 32 -24 160 0 127 -1 136 -22 153 -13 11 -36 31 -53
44 l-30 26 53 46 52 46 0 133 0 133 31 32 c30 29 34 31 103 28 66 -3 71 -5 74
-27z m1635 18 c51 -26 57 -45 57 -186 l0 -131 53 -47 52 -46 -52 -45 -53 -46
0 -132 c0 -127 -1 -134 -24 -159 -30 -32 -56 -39 -127 -35 -53 3 -54 4 -54 33
0 29 2 30 55 35 30 3 61 9 68 13 8 6 12 43 12 127 0 128 6 156 41 189 l23 21
-23 21 c-35 33 -41 61 -41 188 0 84 -4 122 -13 129 -7 6 -34 12 -61 14 -52 3
-74 22 -63 52 5 12 20 16 67 16 34 0 71 -5 83 -11z m1072 -174 l0 -40 -105 -5
c-156 -8 -208 -44 -235 -165 -11 -48 -13 -50 -49 -53 -54 -5 -65 8 -55 67 18
113 83 186 209 234 8 3 65 5 125 4 l110 -2 0 -40z m502 -25 c14 -36 33 -87 43
-115 99 -265 122 -333 123 -355 2 -22 -2 -25 -39 -28 -25 -2 -45 2 -51 10 -10
12 -116 280 -133 338 -5 14 -22 63 -39 109 -42 113 -42 113 20 109 l51 -3 25
-65z m664 49 c66 -29 99 -82 99 -161 0 -64 -25 -108 -80 -146 -19 -13 -36 -27
-38 -32 -2 -5 26 -50 62 -101 36 -50 63 -95 60 -100 -3 -5 -25 -9 -50 -9 -50
0 -52 1 -136 120 l-53 75 -63 3 -62 3 0 -89 c0 -101 -8 -115 -62 -110 l-33 3
-3 143 -3 142 141 0 c149 0 188 9 210 49 13 25 13 67 0 91 -20 37 -51 45 -200
50 l-145 5 -3 43 -3 42 156 0 c138 0 162 -3 206 -21z m580 0 c6 -12 54 -137
105 -277 71 -193 91 -258 82 -264 -7 -5 -31 -7 -52 -6 -39 3 -41 5 -64 63 -60
147 -181 488 -176 496 3 5 25 9 49 9 35 0 47 -4 56 -21z m487 -57 c31 -43 92
-127 135 -186 43 -60 81 -106 83 -103 3 3 5 81 5 174 -1 92 3 174 7 181 6 8
24 12 48 10 l39 -3 0 -280 c0 -263 -1 -280 -18 -283 -48 -9 -65 9 -246 263
-100 140 -186 257 -192 260 -5 4 -9 15 -9 26 0 16 7 19 45 19 45 0 46 -1 103
-78z m930 41 c4 -42 -12 -50 -124 -55 -82 -4 -96 -7 -129 -32 -93 -71 -109
-188 -39 -282 35 -48 86 -67 194 -73 l95 -6 3 -28 c6 -53 -11 -60 -124 -54
-83 4 -110 9 -158 33 -104 51 -156 136 -156 255 0 119 64 216 171 258 44 17
73 20 159 18 l105 -2 3 -32z m617 -8 l0 -40 -207 -3 c-202 -2 -207 -2 -213 19
-4 11 -4 31 -1 45 l6 24 208 -2 207 -3 0 -40z m-3436 -164 c23 -64 24 -58 -29
-176 -10 -22 -30 -69 -44 -104 -30 -74 -37 -81 -90 -81 -36 0 -38 1 -33 28 4
21 95 250 147 370 15 35 26 27 49 -37z m1264 0 c22 -58 21 -67 -29 -176 -12
-28 -32 -75 -44 -105 -12 -30 -26 -61 -32 -67 -12 -15 -84 -18 -92 -4 -9 13
155 412 167 408 6 -2 19 -27 30 -56z m494 26 c13 -17 31 -43 40 -56 15 -21 17
-44 14 -170 -1 -80 -5 -149 -7 -153 -8 -12 -69 -9 -82 4 -8 8 -12 68 -12 203
0 221 4 235 47 172z m-4602 -33 c8 -4 22 -19 31 -35 13 -26 13 -32 0 -58 -18
-34 -57 -46 -94 -29 -22 11 -28 21 -30 55 -2 33 1 44 20 57 24 17 46 20 73 10z
m300 -19 c14 -13 25 -33 25 -45 0 -26 -43 -70 -68 -70 -11 0 -31 9 -46 21 -32
25 -34 66 -6 97 27 29 65 28 95 -3z m291 -3 c32 -41 -4 -112 -56 -112 -31 0
-70 39 -70 70 0 60 90 90 126 42z m274 6 c39 -42 19 -103 -38 -114 -24 -5 -36
-1 -56 19 -33 33 -33 61 -1 92 30 31 68 32 95 3z m278 6 c25 -18 31 -84 9
-103 -27 -21 -72 -24 -94 -4 -36 30 -39 68 -9 97 29 30 62 33 94 10z m5102
-55 l0 -39 -192 2 -193 3 0 35 0 35 128 5 c71 3 158 3 193 2 l64 -4 0 -39z
m-3740 -29 c0 -85 -66 -180 -156 -225 -54 -26 -68 -28 -174 -29 l-115 -1 -3
43 -3 42 81 0 c112 0 165 15 211 61 28 28 40 51 50 93 13 59 20 64 77 58 30
-4 32 -7 32 -42z m3778 -209 c2 -20 -2 -37 -10 -42 -21 -14 -392 -11 -406 3
-13 13 -16 60 -5 72 4 3 99 5 212 4 l206 -3 3 -34z"/>
</g>
</svg>
