<?xml version="1.0" standalone="no"?>
<!DOCTYPE svg PUBLIC "-//W3C//DTD SVG 20010904//EN"
 "http://www.w3.org/TR/2001/REC-SVG-20010904/DTD/svg10.dtd">
<svg version="1.0" xmlns="http://www.w3.org/2000/svg"
 width="1288.000000pt" height="240.000000pt" viewBox="0 0 1288.000000 240.000000"
 preserveAspectRatio="xMidYMid meet">

<g transform="translate(0.000000,240.000000) scale(0.100000,-0.100000)"
fill="#000000" stroke="none">
<path d="M625 1986 c-41 -18 -92 -77 -104 -123 -6 -21 -11 -136 -11 -260 l0
-223 -90 -72 c-49 -39 -90 -74 -90 -77 1 -15 28 -39 160 -138 13 -9 16 -51 20
-260 6 -272 8 -285 70 -337 44 -36 95 -47 212 -44 l103 3 0 60 0 60 -105 3
c-158 4 -150 -10 -150 276 0 214 -1 233 -21 274 -13 26 -38 54 -61 70 l-40 26
33 28 c18 15 36 28 40 28 4 0 17 19 28 43 19 40 21 60 21 276 l0 232 25 24
c23 23 31 25 130 25 l105 0 0 60 0 60 -122 0 c-79 -1 -134 -6 -153 -14z"/>
<path d="M3634 1986 c-3 -7 -4 -33 -2 -57 l3 -44 107 -5 c85 -4 111 -9 125
-23 16 -16 19 -45 23 -266 l5 -248 28 -36 c15 -20 41 -44 57 -54 17 -9 30 -21
30 -25 0 -4 -15 -18 -34 -30 -18 -12 -44 -38 -57 -57 -23 -33 -24 -42 -29
-283 -5 -236 -6 -250 -25 -261 -11 -7 -67 -14 -125 -17 l-105 -5 0 -60 0 -60
115 -3 c103 -2 120 0 160 20 26 14 57 41 75 66 l30 44 5 241 c3 135 9 249 15
258 6 8 45 42 88 74 44 34 76 66 75 74 -2 8 -41 44 -88 81 l-85 66 -5 245 c-6
282 -11 301 -89 350 -43 28 -50 29 -168 29 -96 0 -125 -3 -129 -14z"/>
<path d="M11111 1710 c-134 -20 -287 -103 -352 -192 -73 -101 -99 -180 -99
-303 0 -156 38 -253 140 -355 122 -123 244 -162 483 -158 l142 3 0 75 0 75
-160 6 c-175 6 -214 16 -298 76 -83 58 -134 183 -123 301 15 164 128 282 297
311 36 6 116 11 177 11 l112 0 0 74 c0 58 -3 75 -16 80 -22 8 -237 5 -303 -4z"/>
<path d="M5470 1703 c-42 -6 -136 -42 -186 -70 -63 -36 -154 -127 -180 -183
-36 -77 -42 -96 -55 -178 -17 -109 -12 -114 95 -110 l81 3 10 80 c18 135 78
220 195 274 51 23 69 26 235 31 l180 5 0 75 0 75 -175 1 c-96 1 -186 0 -200
-3z"/>
<path d="M6496 1701 c-3 -4 5 -37 19 -72 13 -35 37 -102 53 -149 104 -296 186
-516 271 -730 l17 -45 92 -3 c77 -2 92 0 92 13 0 12 -62 187 -117 330 -8 22
-59 162 -113 310 -54 149 -106 289 -115 313 l-17 42 -88 0 c-49 0 -91 -4 -94
-9z"/>
<path d="M7265 1698 c-10 -29 -10 -129 0 -138 5 -4 125 -10 265 -12 285 -3
299 -7 348 -79 20 -28 23 -44 20 -94 -4 -70 -24 -103 -83 -137 -38 -22 -51
-23 -295 -28 l-255 -5 -5 -29 c-3 -16 -4 -130 -2 -253 l3 -224 82 3 82 3 5
170 5 170 112 3 111 3 62 -88 c106 -153 131 -187 161 -225 l30 -38 94 0 c69 0
95 3 95 13 0 6 -17 35 -38 62 -63 84 -212 295 -212 300 0 2 24 16 53 31 120
60 177 153 177 289 0 135 -70 236 -199 287 -52 21 -74 22 -333 26 -225 3 -279
1 -283 -10z"/>
<path d="M8730 1703 c0 -21 271 -767 338 -928 l29 -70 91 -3 c70 -2 92 0 92
10 0 7 -16 56 -36 108 -19 52 -89 244 -156 425 -66 182 -131 359 -144 395 -13
36 -24 66 -24 67 0 2 -43 3 -95 3 -52 0 -95 -3 -95 -7z"/>
<path d="M9512 1698 c2 -8 51 -81 110 -163 60 -83 217 -303 350 -490 l243
-340 73 -3 72 -3 0 506 0 506 -82 -3 -83 -3 -5 -330 c-3 -211 -9 -330 -15
-329 -5 0 -53 61 -106 135 -53 74 -159 222 -236 329 l-140 195 -92 3 c-73 2
-92 0 -89 -10z"/>
<path d="M11787 1703 c-4 -3 -7 -37 -7 -74 0 -63 2 -69 23 -74 12 -3 182 -4
377 -3 l355 3 0 75 0 75 -371 3 c-204 1 -373 -1 -377 -5z"/>
<path d="M6371 1433 c-6 -16 -74 -183 -151 -372 -77 -189 -137 -347 -134 -352
3 -5 43 -9 88 -9 l84 0 15 33 c8 17 35 82 60 142 25 61 68 166 97 235 58 140
58 120 -2 273 -17 42 -34 77 -38 77 -4 0 -13 -12 -19 -27z"/>
<path d="M8604 1418 c-10 -24 -23 -56 -29 -73 -57 -143 -237 -584 -245 -597
-24 -42 -15 -48 75 -48 97 0 96 -1 141 111 14 35 59 146 101 247 l75 183 -32
82 c-18 45 -37 94 -42 110 -14 37 -23 34 -44 -15z"/>
<path d="M9482 1083 l3 -378 85 0 85 0 3 268 2 267 -77 110 c-43 60 -84 110
-91 110 -10 0 -12 -79 -10 -377z"/>
<path d="M1168 1340 c-93 -50 -91 -177 2 -225 60 -31 131 -11 165 47 65 110
-55 238 -167 178z"/>
<path d="M1688 1339 c-120 -63 -71 -239 66 -239 47 0 102 48 116 100 13 50
-10 104 -59 137 -41 28 -74 28 -123 2z"/>
<path d="M2212 1344 c-43 -19 -72 -68 -72 -123 0 -39 5 -49 40 -83 52 -48 104
-52 158 -12 84 65 73 173 -25 223 -28 14 -60 13 -101 -5z"/>
<path d="M2735 1345 c-100 -51 -102 -180 -5 -230 65 -34 146 -1 177 72 24 59
-9 132 -74 159 -41 18 -61 17 -98 -1z"/>
<path d="M3251 1343 c-95 -48 -95 -179 -1 -228 107 -55 223 61 169 169 -31 63
-107 90 -168 59z"/>
<path d="M11787 1283 c-4 -3 -7 -37 -7 -74 0 -52 4 -68 16 -73 9 -3 158 -6
333 -6 233 0 320 3 329 12 12 12 17 104 6 132 -5 14 -45 16 -338 16 -183 0
-336 -3 -339 -7z"/>
<path d="M5667 1223 c-4 -3 -7 -26 -7 -50 0 -84 -52 -185 -124 -239 -73 -56
-122 -68 -316 -74 l-175 -5 -3 -54 c-6 -107 -15 -101 171 -101 104 0 187 6
231 15 214 45 370 206 398 409 15 105 15 106 -85 106 -46 0 -87 -3 -90 -7z"/>
<path d="M11784 847 c-3 -8 -4 -43 -2 -78 l3 -64 375 0 375 0 0 75 0 75 -373
3 c-308 2 -373 0 -378 -11z"/>
</g>
</svg>
